<?xml version="1.0" encoding="utf-8"?>
<!-- Generator: Adobe Illustrator 25.3.1, SVG Export Plug-In . SVG Version: 6.00 Build 0)  -->
<svg version="1.0" id="object" xmlns="http://www.w3.org/2000/svg" xmlns:xlink="http://www.w3.org/1999/xlink" x="0px" y="0px"
	 viewBox="0 0 714 714" style="enable-background:new 0 0 714 714;" xml:space="preserve">
<style type="text/css">
	.st0{fill:#F15A24;}
	.st1{fill:#CE7D46;}
	.st2{fill:#FFB07B;}
	.st3{fill:#DD1717;}
	.st4{fill:#FFD05C;}
	.st5{fill:#ED4A4A;}
	.st6{fill:#AF632F;}
	.st7{fill:none;}
	.st8{fill:#342A42;}
</style>
<g>
	<g>
		<path class="st0" d="M453.3,243.6c-19.3-6.2-30.7,5-54.2-12.9c-12.4-9.4-15.7-1.8-25-6.2c-19.7-9.1-11.5-79.2-3.3-104.8
			c-9.1,6.5-17.2,14.2-23.5,23.3c1.6,2.4,6,63.3-0.6,76.4c-4.3,8.4-12.7,11.1-20.8,14.4c-17.2,6.9-15.8,21.3-8.7,25.4
			c15.1,8.6,40.3-34.9,58.9-0.8c22,40.4,15.6-28.6,49-3c7.3,5.6,14,12.5,23.5,13.9C467.4,272.1,473.6,250.1,453.3,243.6z"/>
		<path class="st0" d="M331.4,129.2c7.9-11,10.2-38.4,7.2-51.5c-4,0.7-11.5,1.9-28.8,5.2c-0.2,0-18.8,5.2-13.5,2.3
			c5.3-2.9,36.7-15.9,50.6-16.5c1.7-1,3.5-2.2,5.5-3.9c3.7-3,6-5.8,7.7-8.2C295.3,67.5,210.7,93,171,118.2c1.7,15.9,5,34.2,8.7,51.7
			c4.8-7.1,6.8-14.7,6.5-22.8c-8-26.6-5.2-26.6,32.7-39.4c19.2-6.5,22.2-4.6,4.1,4.5c-41.3,20.6-33.7,6.2-27.8,44.7
			c0.4,2.7,0.8,5.2,1.1,7.5c3,2.9,7,4.8,11.8,5.1c1.1,0.1,7.7-1.1,17.3-3.1c0.4-1.7,1.1-3.3,2.1-4.7c2.5-1.7,4.7-2.2,7.4-2.6
			c-0.3,1.6-0.5,3.4-0.6,5.3C267.7,156.9,322.1,142.2,331.4,129.2z"/>
		<path class="st0" d="M414.9,125.1c-9.2-2.8-27.3-5.1-30.5-5.5c4.3,6.1,10.2,16,15.8,27.3C413.7,127,413.8,126.8,414.9,125.1z"/>
	</g>
	<g>
		<path class="st1" d="M526,287.4c-2.5-1.8-5.2-3.5-8-5.2c-14.6,7.2-22.5,23.1-22.9,37.4c2.1,1.4,4.2,2.8,6.2,4.3
			C500.2,306.9,509.4,289.9,526,287.4z"/>
		<path class="st1" d="M500.3,273.9c0-0.3,0.1-0.5,0.1-0.8c-9-4.1-18.3-7.6-27-10.7c-4.1,14.5-25,23.5-49.9,2.2
			c-21.5-18.4-16.3,8.5-31.2,14c-8.8,3.3-16.7-3.9-21.4-12.7c-7.9-14.8-10.5-17.2-31.5-3.8c-25.5,16.3-38.4-3.2-34.7-17.6
			c-22.7,5.5-34.2,20.9-34.8,35.2c31.1-12,202.7,10.1,202.9,10.1C484.5,290.1,499.2,283.9,500.3,273.9z"/>
		<path class="st1" d="M540.8,299.6c3.4,12.2,0.8,21.6-4,27.9c-3.4,4.4-8.5,7.4-14,7.9c-4.1,0.4-7.3,0-9.6-0.6
			c3.6,5.3,9.6,8,17.7,4.7C551.8,331,550.7,309.2,540.8,299.6z"/>
	</g>
	<g>
		<path class="st2" d="M506.9,340.2c-83.3,62-145.8,152.6-174,254.5c27.8-6.2-13.9-81.9,177.2-251
			C508,341.8,507.4,340.8,506.9,340.2z"/>
		<path class="st2" d="M501.3,334.2c-5.6-4.6-11.5-8.6-17.6-12.2c0.1,11.3-6.5,22.6-16.7,27.6c-8.7,4.3-19.5,4.4-26.6,10.9
			c-11.4,10.5-6.2,30.3-14.5,43.5c-9.5,15.1-32.2,15.5-44.3,28.5c-9.5,10.3-10.1,25.6-10.4,39.6c-0.1,3.5-0.2,7-0.5,10.6
			C403.1,425.7,447.2,374.8,501.3,334.2z"/>
		<path class="st2" d="M328.1,534.9c-5.3,10.5-0.4,24.6-7.5,34.1c-4.4,5.9-12.6,8.1-19.9,7c-1.7-0.2-3.3-0.6-4.8-1.2
			c9.1,7.1,18.9,13.1,29,18c7.2-26.2,16.7-51.8,28.4-76.6C344.1,522,332.9,525.5,328.1,534.9z"/>
	</g>
	<g>
		<path class="st3" d="M364.1,55.9c-1.3,0.2-2.7,0.4-4,0.7c-1.7,2.4-4,5.2-7.7,8.2c-2,1.7-3.9,2.9-5.5,3.9c3.9-0.2,6.5,0.6,6.6,3
			c0.4,6.2,1.6,12.3,2.1,18.5c1.7,24.8-1,29.5-8.9-13.9c-3.5,0.7-4,0.7-8.1,1.4c3,13.1,0.6,40.5-7.2,51.5
			c-9.3,13-63.7,27.7-97.1,35.3c-0.3,6.4,0.8,13.8,4.4,17.2c42.3-14.1,66.9-22.6,91.4-29c7.9-18,21.1-34.3,37.3-45.4
			C364.9,62.3,365,62.7,364.1,55.9z"/>
		<path class="st3" d="M225.4,166.4c-9.6,2-16.2,3.2-17.3,3.1c-4.8-0.3-8.8-2.2-11.8-5.1c4.6,30.7,2.7,25.3-5.2-1.1
			c-1.9-6.3-3.6-11.6-4.9-16.2c0.3,8-1.7,15.7-6.5,22.8c2.2,10.2,4.5,20.2,6.8,29.2c8-2.7,32.2-10.7,40.3-13.4
			c0.4-1.4,0.7-2.7,1-4.1C224.8,177.7,224,171.5,225.4,166.4z"/>
	</g>
	<path class="st4" d="M320.7,569c7-9.5,2.1-23.6,7.5-34.1c4.8-9.5,16-12.9,25.1-18.6c5.4-11.4,11.2-22.6,17.4-33.6
		c0.3-3.5,0.4-7.1,0.5-10.6c0.3-14,0.9-29.3,10.4-39.6c12.1-13.1,34.9-13.5,44.3-28.5c8.3-13.1,3.1-32.9,14.5-43.5
		c7.1-6.6,17.9-6.7,26.6-10.9c10.2-5,16.8-16.3,16.7-27.6c-61.7-36-151.6-27.7-211.8-29.2c-37.3,59.4-48.5,115-42.8,162.4
		c3.7-3.6,8.7-5.9,14.3-5.9c11.1,0,20.2,9,20.2,20.2c0,11.1-9,20.2-20.2,20.2c-2.5,0-4.9-0.5-7.2-1.3c11.3,36.3,33,66,59.7,86.7
		c1.6,0.5,3.2,0.9,4.8,1.2C308.1,577.2,316.3,575,320.7,569z M421.5,321.3c13.3,0,24,10.3,24,23c0,12.7-10.8,23-24,23
		c-13.3,0-24-10.3-24-23C397.5,331.6,408.2,321.3,421.5,321.3z M312.8,483.4c-13.3,0-24-10.7-24-24c0-13.3,10.7-24,24-24
		c13.3,0,24,10.7,24,24C336.9,472.7,326.1,483.4,312.8,483.4z M353.5,430.2c-8.1,0-14.7-6.6-14.7-14.7c0-8.1,6.6-14.7,14.7-14.7
		c8.1,0,14.7,6.6,14.7,14.7C368.2,423.6,361.6,430.2,353.5,430.2z M357.3,301.3c10.2,0,18.5,8.3,18.5,18.5
		c0,10.2-8.3,18.5-18.5,18.5c-10.2,0-18.5-8.3-18.5-18.5C338.8,309.6,347.1,301.3,357.3,301.3z M313.1,361.7
		c1.7,17.3,9.9,14,12,13.4c1.7-0.5,6.2-6.6,6.2-6.6c0.7-1.2,2.1-2,3.4-2c12.4,0-6.1,28-24.4,13.4c-2.7-2.2-4.7-5.6-5.3-9
		C302.8,358.1,312.7,357.2,313.1,361.7z M279.7,301.3c10.7,0,19.4,8.7,19.4,19.4s-8.7,19.4-19.4,19.4c-10.7,0-19.4-8.7-19.4-19.4
		S268.9,301.3,279.7,301.3z M249.4,356.1c0.4-1.5,2.4-3.3,4.3-2.7c3.5,1,1.5,5,4.4,9.8c11.3,10.6,15.2-11.6,19.6-2.5
		c0.9,1.8,0.6,3.2-0.3,4.8C269,381.6,245.6,371.3,249.4,356.1z M259.2,396.5c5.1,2.3-1.5,7.7-2.9,18.4c-0.9,6.5,0.6,9.7,0.4,13.2
		c-0.3,3.5-10.1-10-4.5-26.3c-10.4-6.2-7.9-20.1,10.3-17.9c9.7,1.1,13.3,5.6,11.2,6.3C268.9,391.7,242.7,389.1,259.2,396.5z
		 M269.9,537.2c0-12.2,9.9-22.2,22.2-22.2c12.2,0,22.2,9.9,22.2,22.2c0,12.2-9.9,22.2-22.2,22.2
		C279.8,559.3,269.9,549.4,269.9,537.2z"/>
	<g>
		<ellipse class="st5" cx="421.5" cy="344.3" rx="24" ry="23"/>
		
			<ellipse transform="matrix(0.3827 -0.9239 0.9239 0.3827 -231.3248 572.6376)" class="st5" cx="312.8" cy="459.4" rx="24" ry="24"/>
		
			<ellipse transform="matrix(0.1602 -0.9871 0.9871 0.1602 -284.9917 739.3627)" class="st5" cx="292" cy="537.2" rx="22.2" ry="22.2"/>
		<path class="st5" d="M353.5,400.8c-8.1,0-14.7,6.6-14.7,14.7c0,8.1,6.6,14.7,14.7,14.7c8.1,0,14.7-6.6,14.7-14.7
			C368.2,407.4,361.6,400.8,353.5,400.8z"/>
		
			<ellipse transform="matrix(0.984 -0.1784 0.1784 0.984 -52.7426 55.0475)" class="st5" cx="279.7" cy="320.8" rx="19.4" ry="19.4"/>
		
			<ellipse transform="matrix(0.9732 -0.2298 0.2298 0.9732 -63.9143 90.6466)" class="st5" cx="357.3" cy="319.8" rx="18.5" ry="18.5"/>
		<path class="st5" d="M243.4,449.3c-5.6,0-10.6,2.3-14.3,5.9c1.4,11.5,3.8,22.6,7.1,33.1c2.2,0.8,4.6,1.3,7.2,1.3
			c11.1,0,20.2-9,20.2-20.2C263.6,458.3,254.5,449.3,243.4,449.3z"/>
	</g>
	<g>
		<path class="st6" d="M500.4,273.2c-0.1,0.2-0.1,0.5-0.1,0.8c-1.1,9.9-15.9,16.1-27.6,16c-0.2,0-171.8-22.1-202.9-10.1
			c-0.1,2.1,0.1,4.2,0.4,6.2c10.9-2.4,153.7-12.2,224.8,33.5c0.4-14.3,8.3-30.2,22.9-37.4C512.5,278.9,506.5,275.9,500.4,273.2z"/>
		<path class="st6" d="M540.8,299.6c-5.8-5.6-14.7-7-23.9,1.2c-9,8.7-9.7,25.1-3.7,34c2.4,0.6,5.5,1,9.6,0.6
			c5.5-0.5,10.6-3.5,14-7.9C541.6,321.3,544.2,311.9,540.8,299.6z"/>
	</g>
	<g>
		<path class="st7" d="M265,290.4c-8.1-19.3,4.6-48.5,44.8-55.2c3.9-4.5,9.3-7.5,15-9.7c26.1-10.1,14.3-18.9,16.8-72.7
			c-5.2,10.7,8.9,4.5-107.2,43.2c-13.3,41.7-9.7,88.4,10.4,127.2C250.6,311.7,257.3,300.7,265,290.4z"/>
		<path class="st7" d="M227.8,181.6c-3-3.9-3.8-10.1-2.4-15.2c0.4-1.7,1.1-3.3,2.1-4.7c2.5-1.7,4.7-2.2,7.4-2.6
			c-0.3,1.6-0.5,3.4-0.6,5.3c-0.3,6.4,0.8,13.8,4.4,17.2c42.3-14.1,66.9-22.6,91.4-29c7.9-18,21.1-34.3,37.3-45.4
			c-2.5-45-2.4-44.6-3.3-51.3c-1.3,0.2-2.7,0.4-4,0.7C295.3,67.5,210.7,93,171,118.2c1.7,15.9,5,34.2,8.7,51.7
			c2.2,10.2,4.5,20.2,6.8,29.2c8-2.7,32.2-10.7,40.3-13.4C227.1,184.3,227.4,182.9,227.8,181.6z M296.3,85.2
			c5.3-2.9,36.7-15.9,50.6-16.5c3.9-0.2,6.5,0.6,6.6,3c0.4,6.2,1.6,12.3,2.1,18.5c1.7,24.8-1,29.5-8.9-13.9c-3.5,0.7-4,0.7-8.1,1.4
			c-4,0.7-11.5,1.9-28.8,5.2C309.6,83,291.1,88.1,296.3,85.2z M195.1,156.9c0.4,2.7,0.8,5.2,1.1,7.5c4.6,30.7,2.7,25.3-5.2-1.1
			c-1.9-6.3-3.6-11.6-4.9-16.2c-8-26.6-5.2-26.6,32.7-39.4c19.2-6.5,22.2-4.6,4.1,4.5C181.6,132.8,189.2,118.4,195.1,156.9z"/>
		<path class="st7" d="M423.5,264.7c-21.5-18.4-16.3,8.5-31.2,14c-8.8,3.3-16.7-3.9-21.4-12.7c-7.9-14.8-10.5-17.2-31.5-3.8
			c-25.5,16.3-38.4-3.2-34.7-17.6c-22.7,5.5-34.2,20.9-34.8,35.2c-0.1,2.1,0.1,4.2,0.4,6.2c10.9-2.4,153.7-12.2,224.8,33.5
			c2.1,1.4,4.2,2.8,6.2,4.3c-1.2-17,8.1-34,24.7-36.5c-2.5-1.8-5.2-3.5-8-5.2c-5.5-3.3-11.5-6.3-17.5-9c-9-4.1-18.3-7.6-27-10.7
			C469.3,277,448.5,286,423.5,264.7z"/>
		<path class="st7" d="M347.4,143.1c1.6,2.4,6,63.3-0.6,76.4c-4.3,8.4-12.7,11.1-20.8,14.4c-17.2,6.9-15.8,21.3-8.7,25.4
			c15.1,8.6,40.3-34.9,58.9-0.8c22,40.4,15.6-28.6,49-3c7.3,5.6,14,12.5,23.5,13.9c18.7,2.7,24.9-19.2,4.6-25.7
			c-19.3-6.2-30.7,5-54.2-12.9c-12.4-9.4-15.7-1.8-25-6.2c-19.7-9.1-11.5-79.2-3.3-104.8C361.7,126.2,353.6,133.9,347.4,143.1z"/>
		<path class="st7" d="M414.9,125.1c-9.2-2.8-27.3-5.1-30.5-5.5c4.3,6.1,10.2,16,15.8,27.3C413.7,127,413.8,126.8,414.9,125.1z"/>
		<path class="st7" d="M370.7,482.7c32.4-56.9,76.6-107.9,130.7-148.5c-5.6-4.6-11.5-8.6-17.6-12.2c-61.7-36-151.6-27.7-211.8-29.2
			c-37.3,59.4-48.5,115-42.8,162.4c1.4,11.5,3.8,22.6,7.1,33.1c11.3,36.3,33,66,59.7,86.7c9.1,7.1,18.9,13.1,29,18
			c7.2-26.2,16.7-51.8,28.4-76.6C358.6,504.9,364.4,493.7,370.7,482.7z M273.7,390.1c-4.8,1.6-31-1-14.5,6.4
			c5.1,2.3-1.5,7.7-2.9,18.4c-0.9,6.5,0.6,9.7,0.4,13.2c-0.3,3.5-10.1-10-4.5-26.3c-10.4-6.2-7.9-20.1,10.3-17.9
			C272.2,384.9,275.8,389.4,273.7,390.1z M277.4,365.5c-8.4,16.1-31.8,5.8-28-9.4c0.4-1.5,2.4-3.3,4.3-2.7c3.5,1,1.5,5,4.4,9.8
			c11.3,10.6,15.2-11.6,19.6-2.5C278.5,362.4,278.3,363.8,277.4,365.5z M310.4,379.8c-2.7-2.2-4.7-5.6-5.3-9
			c-2.3-12.7,7.6-13.7,8-9.2c1.7,17.3,9.9,14,12,13.4c1.7-0.5,6.2-6.6,6.2-6.6c0.7-1.2,2.1-2,3.4-2
			C347.2,366.5,328.6,394.5,310.4,379.8z"/>
		<path class="st7" d="M516.9,300.9c-9,8.7-9.7,25.1-3.7,34c3.6,5.3,9.6,8,17.7,4.7c21-8.5,19.9-30.4,9.9-39.9
			C535,294,526.1,292.7,516.9,300.9z"/>
		<path class="st7" d="M506.9,340.2c-83.3,62-145.8,152.6-174,254.5c27.8-6.2-13.9-81.9,177.2-251
			C508,341.8,507.4,340.8,506.9,340.2z"/>
		<path class="st7" d="M392.9,486c37,4.7,75.6,6.1,65.5-29.9c-3.5-12.4-8.9-24.3-16-35C424.2,441.3,407.3,462.9,392.9,486z"/>
		<path class="st8" d="M542.1,290.6c-14.5-16.6-47.6-29.5-68.4-36.7c-5.9-27.8-44.7-16.4-60.5-23.5c-8-3.6-12.9-11.8-23.4-12.7
			c-4.1-0.4-9.9,1.6-13.4-1.2c-8.1-6.5-9.1-53.6,0.4-88.3c6.1,10.5,11.4,20.2,17.4,33.4c2,4.4,7.9,3.3,10.2,0
			c19.6-28.7,29.3-38.3,18.6-45.9c-6.2-4.4-35-8.3-43.3-8.1c-1.1-20.1-1.6-40.4-4.5-60.4c-2.7-18.7-218.9,48-217,67.7
			c3.1,31.7,9.9,62.9,17.8,93.7c2.2,8.4,8.4,4,47.4-9c-9.5,47.8-5.2,98.4,12.5,143.8c-17.3,44.4-20.7,87.7-12.7,126.9
			c0.5,2.3,1,4.5,1.5,6.8c7.2,29.9,21.2,57.1,40.9,80.1c-5.1,32.7-2.5,66.4,7.4,97.9c-10.2-9.6-29.3-3.8-27.5,14.7h45.7
			c-13.2-30.8-17.5-65.4-12.2-98.5c15.9,14.9,43.4,32.4,52.6,32.2c14.3-0.3,19.2-16.2,22.4-28.9c17.1,29,27.7,61.8,30.7,95.3H422
			c-2.7-11.8-16.7-20.4-29.4-15.2c-0.3-34.9-12.2-70.2-33.2-98.1c7.8-23.9,18.7-46.5,31.9-68.1c-1.5,8.8,0.3,18.2,5,25.8
			c4.3,0.2,10.8-4.7,14.1-7.3c-1.9-0.7-3.3-2-4.8-3.4c-0.1-1.6-1.1-7.6-1.2-9.2c76,18.7,90.7-31.3,46.1-82.4
			c21.3-22.7,43.7-43.5,67-64.1C546.7,357.5,572.4,308.6,542.1,290.6z M414.9,125.1c-1.1,1.8-1.2,2-14.7,21.8
			c-5.6-11.3-11.6-21.1-15.8-27.3C387.6,120,405.7,122.3,414.9,125.1z M473.4,262.5c8.7,3,18,6.6,27,10.7c6.1,2.8,12,5.8,17.5,9
			c2.8,1.7,5.5,3.4,8,5.2c-16.6,2.5-25.8,19.5-24.7,36.5c-2-1.5-4.1-2.9-6.2-4.3c-71.1-45.8-213.9-35.9-224.8-33.5
			c-0.4-2-0.5-4.1-0.4-6.2c0.6-14.2,12.1-29.6,34.8-35.2c-3.7,14.4,9.1,33.9,34.7,17.6c21-13.4,23.6-11,31.5,3.8
			c4.7,8.7,12.5,15.9,21.4,12.7c14.9-5.5,9.8-32.4,31.2-14C448.5,286,469.3,277,473.4,262.5z M374.1,224.6c9.4,4.3,12.7-3.2,25,6.2
			c23.5,17.9,34.9,6.7,54.2,12.9c20.3,6.5,14.1,28.5-4.6,25.7c-9.6-1.4-16.2-8.3-23.5-13.9c-33.4-25.6-27,43.4-49,3
			c-18.6-34.1-43.8,9.3-58.9,0.8c-7.1-4-8.6-18.4,8.7-25.4c8.1-3.3,16.5-6,20.8-14.4c6.7-13.1,2.3-74,0.6-76.4
			c6.3-9.1,14.3-16.8,23.5-23.3C362.7,145.3,354.4,215.4,374.1,224.6z M186.4,199.1c-2.3-9.1-4.6-19-6.8-29.2
			c-3.7-17.5-7-35.8-8.7-51.7C210.7,93,295.3,67.5,360.1,56.6c1.3-0.2,2.7-0.4,4-0.7c0.9,6.7,0.7,6.4,3.3,51.3
			c-16.3,11.1-29.4,27.4-37.3,45.4c-24.5,6.4-49.1,14.9-91.4,29c-3.6-3.5-4.7-10.8-4.4-17.2c0.1-1.9,0.3-3.7,0.6-5.3
			c-2.7,0.4-4.9,0.9-7.4,2.6c-0.9,1.4-1.6,3-2.1,4.7c-1.3,5.1-0.5,11.3,2.4,15.2c-0.4,1.4-0.7,2.7-1,4.1
			C218.6,188.4,194.4,196.5,186.4,199.1z M234.5,196.1c116.1-38.7,102-32.6,107.2-43.2c-2.5,53.9,9.2,62.6-16.8,72.7
			c-5.8,2.2-11.1,5.3-15,9.7c-40.2,6.7-52.9,35.9-44.8,55.2c-7.7,10.2-14.4,21.3-20.1,32.9C224.9,284.4,221.3,237.7,234.5,196.1z
			 M324.9,592.9c-10.1-4.8-19.8-10.9-29-18c-26.7-20.7-48.4-50.4-59.7-86.7c-3.3-10.5-5.7-21.6-7.1-33.1
			c-5.7-47.4,5.5-102.9,42.8-162.4c60.2,1.5,150.1-6.8,211.8,29.2c6.2,3.6,12.1,7.7,17.6,12.2c-54.1,40.6-98.3,91.5-130.7,148.5
			c-6.3,11-12.1,22.2-17.4,33.6C341.6,541.1,332.1,566.7,324.9,592.9z M458.4,456.1c10.1,36-28.6,34.6-65.5,29.9
			c14.4-23.2,31.2-44.7,49.5-65C449.5,431.8,454.9,443.6,458.4,456.1z M332.9,594.7c28.2-102,90.7-192.5,174-254.5
			c0.4,0.6,1,1.6,3.2,3.6C319,512.8,360.8,588.5,332.9,594.7z M530.8,339.5c-8.1,3.3-14.1,0.6-17.7-4.7c-6-8.9-5.2-25.3,3.7-34
			c9.2-8.2,18.1-6.8,23.9-1.2C550.7,309.2,551.8,331,530.8,339.5z"/>
		<path class="st8" d="M334.8,366.5c-1.3,0-2.7,0.8-3.4,2c0,0-4.6,6.1-6.2,6.6c-2.1,0.7-10.3,4-12-13.4c-0.4-4.5-10.3-3.5-8,9.2
			c0.6,3.4,2.6,6.8,5.3,9C328.6,394.5,347.2,366.5,334.8,366.5z"/>
		<path class="st8" d="M258.1,363.2c-2.9-4.9-0.9-8.9-4.4-9.8c-2-0.5-3.9,1.2-4.3,2.7c-3.8,15.2,19.7,25.5,28,9.4
			c0.9-1.7,1.1-3.1,0.3-4.8C273.3,351.5,269.4,373.7,258.1,363.2z"/>
		<path class="st8" d="M262.5,383.8c-18.1-2.1-20.7,11.7-10.3,17.9c-5.6,16.3,4.2,29.9,4.5,26.3c0.3-3.5-1.2-6.7-0.4-13.2
			c1.4-10.7,8-16.1,2.9-18.4c-16.5-7.4,9.7-4.7,14.5-6.4C275.8,389.4,272.2,384.9,262.5,383.8z"/>
		<path class="st8" d="M222.9,112.2c18.1-9,15.1-10.9-4.1-4.5c-37.9,12.8-40.7,12.8-32.7,39.4c1.4,4.6,3.1,9.9,4.9,16.2
			c7.9,26.4,9.7,31.8,5.2,1.1c-0.3-2.3-0.7-4.8-1.1-7.5C189.2,118.4,181.6,132.8,222.9,112.2z"/>
		<path class="st8" d="M309.8,82.9c17.3-3.3,24.8-4.6,28.8-5.2c4.1-0.7,4.6-0.7,8.1-1.4c7.9,43.3,10.6,38.7,8.9,13.9
			c-0.4-6.2-1.7-12.3-2.1-18.5c-0.1-2.3-2.7-3.1-6.6-3c-13.9,0.6-45.4,13.6-50.6,16.5C291.1,88.1,309.6,83,309.8,82.9z"/>
	</g>
</g>
</svg>
